<svg id="Capa_1" enable-background="new 0 0 512 512" height="512" viewBox="0 0 512 512" width="512" xmlns="http://www.w3.org/2000/svg"><g><g><path d="m225.066 392.265v104.735h30.934l20-52.367-20-52.368z" fill="#b9c3cd"/><path d="m256 392.265h30.934v104.734h-30.934z" fill="#909ba6"/></g><g><path d="m256 512h-124.766v-30h124.766l20 15z" fill="#dce6eb"/></g><g><path d="m0 80.943v273.247l256 20 30-104.937-30-188.31z" fill="#07485e"/><path d="m512 80.943h-256v293.247l256-20z" fill="#04303e"/></g><g><path d="m0 354.19v61.867h256l20-30.934-20-30.933z" fill="#dce6eb"/><path d="m256 354.19h256v61.867h-256z" fill="#b9c3cd"/></g><g><path d="m256 482h124.766v30h-124.766z" fill="#b9c3cd"/></g><g><g><g><path d="m211.735 15v113.971l-82.355 159.418 12.002 23.277h114.618l10-157.454-10-139.212z" fill="#d4ecfd"/><path d="m382.62 288.389-12.661-24.509-17.748-15 2.252-15-16.935-32.787-17.749-15 2.252-15-21.755-42.117v-113.976h-44.276v296.666h114.618z" fill="#9cd2fc"/></g><path d="m322.031 171.093h-66.031v30h81.528z" fill="#6aa8ff"/><g><path d="m256 30h-89.126v-30h89.126l10 15z" fill="#9cd2fc"/></g></g></g><g><path d="m256 0h89.126v30h-89.126z" fill="#6aa8ff"/></g><path d="m354.463 233.88h-66.031v30h81.527z" fill="#6aa8ff"/></g></svg>